<?xml version="1.0" encoding="utf-8"?>
<!-- Generator: Adobe Illustrator 25.2.3, SVG Export Plug-In . SVG Version: 6.00 Build 0)  -->
<svg version="1.1" id="Layer_1" xmlns="http://www.w3.org/2000/svg" xmlns:xlink="http://www.w3.org/1999/xlink" x="0px" y="0px"
	 viewBox="0 0 1200 187.41" style="enable-background:new 0 0 1200 187.41;" xml:space="preserve">
<style type="text/css">
	.st0{fill:#536DFE;}
	.st1{fill:#22354C;}
	.st2{fill:#FFFFFF;}
</style>
<g>
	<g>
		<path class="st0" d="M337.44,28.47c-17.43-17.43-40.6-27.02-65.25-27.02s-47.81,9.6-65.24,27.02
			c-13.28,13.28-21.9,31.2-30.24,48.53c-0.56,1.16-1.13,2.3-1.68,3.46h-80.6v26.51h67.69c-6.22,12.65-12.87,24.91-21.2,33.24
			c-12.42,12.42-28.93,19.26-46.49,19.26s-34.08-6.84-46.49-19.26c-12.42-12.42-19.26-28.93-19.26-46.5s6.84-34.07,19.26-46.5
			c12.42-12.42,28.93-19.26,46.49-19.26s34.08,6.84,46.49,19.26l18.75-18.74C142.24,11.04,119.07,1.44,94.43,1.44
			s-47.81,9.6-65.24,27.02C11.76,45.89,2.16,69.06,2.16,93.7c0,24.65,9.6,47.81,27.02,65.24c17.43,17.43,40.59,27.02,65.24,27.02
			s47.81-9.6,65.24-27.02c13.28-13.28,21.9-31.19,30.24-48.51c0.56-1.17,1.13-2.31,1.69-3.48h80.6V80.45H204.5
			c6.22-12.65,12.86-24.91,21.19-33.24c12.42-12.42,28.93-19.26,46.49-19.26c17.57,0,34.08,6.84,46.5,19.26
			c12.42,12.42,19.26,28.93,19.26,46.5s-6.84,34.08-19.26,46.5c-12.42,12.42-28.93,19.26-46.5,19.26
			c-17.56,0-34.08-6.84-46.49-19.26l-18.75,18.74c17.43,17.43,40.59,27.02,65.24,27.02s47.82-9.6,65.25-27.02
			c17.42-17.43,27.02-40.59,27.02-65.24C364.46,69.06,354.86,45.89,337.44,28.47z"/>
	</g>
	<g>
		<g>
			<path class="st1" d="M504.75,5.91c21.58,0,44.32,6.27,61.26,20.89l-14.85,22.28c-10.21-9.05-28.31-15.78-43.86-15.78
				c-36.89,0-56.62,25.99-56.62,56.62c0,35.5,24.37,58.94,55.23,58.94c15.31,0,30.4-6.73,41.3-17.17v-25.04h-42.63V80.89h69.55
				v62.91c0,0-24.67,32.44-73.56,32.44c-43.39,0-80.75-33.65-80.75-85.39C419.83,43.04,455.79,5.91,504.75,5.91z"/>
			<path class="st1" d="M658.78,52.33c36.2,0,65.21,25.76,65.21,61.96c0,36.43-29.01,61.96-64.98,61.96s-64.97-25.53-64.97-61.96
				C594.04,78.08,623.04,52.33,658.78,52.33z M659.01,151.18c19.26,0,35.27-14.85,35.27-36.9c0-21.81-16.01-36.9-35.27-36.9
				s-35.04,15.09-35.04,36.9C623.97,136.33,639.75,151.18,659.01,151.18z"/>
			<path class="st1" d="M749.27,80.17h-14.62V56.73h14.62v-5.11c0-38.75,32.02-43.86,48.5-43.86c3.48,0,6.5,0,9.98,0.69v25.06
				c-0.93-0.23-3.48-0.46-6.03-0.46c-8.59,0-22.97,2.09-22.97,19.26v4.41h25.53v23.44h-25.53v93.28h-29.47V80.17z M823.99,8.7h29.24
				v123.45c0,12.99,4.41,16.24,12.07,16.24c1.16,0,2.78,0,4.41-0.23v25.76c-2.09,0.23-5.34,0.7-9.28,0.7
				c-16.24,0-36.43-4.18-36.43-38.06V8.7z"/>
			<path class="st1" d="M943.32,52.33c36.2,0,65.21,25.76,65.21,61.96c0,36.43-29.01,61.96-64.98,61.96
				c-35.97,0-64.97-25.53-64.97-61.96C878.58,78.08,907.58,52.33,943.32,52.33z M943.55,151.18c19.26,0,35.27-14.85,35.27-36.9
				c0-21.81-16.01-36.9-35.27-36.9c-19.26,0-35.04,15.09-35.04,36.9C908.51,136.33,924.29,151.18,943.55,151.18z"/>
			<path class="st1" d="M1013.83,55.11h31.09l20.65,77.74c1.62,6.27,2.32,12.53,2.32,12.53h0.47c0,0,1.16-6.27,2.78-12.53
				l21.81-77.5h26.22l21.81,77.5c1.63,6.27,2.55,12.53,2.55,12.53h0.47c0,0,0.7-6.27,2.55-12.53l20.65-77.74h30.63l-35.96,118.35
				h-32.72l-19.96-67.53c-1.86-6.27-3.02-12.76-3.02-12.76h-0.46c0,0-1.16,6.5-2.79,12.76l-20.19,67.53h-32.95L1013.83,55.11z"/>
		</g>
	</g>
</g>
</svg>
